<mxfile host="app.diagrams.net" modified="2023-06-20T01:10:53.793Z" agent="Mozilla/5.0 (Windows NT 10.0; Win64; x64) AppleWebKit/537.36 (KHTML, like Gecko) Chrome/113.0.0.0 Safari/537.36 OPR/99.0.0.0 (Edition std-1)" etag="dksjZJqgTY3RPpMpwC4M" version="21.5.0" type="github">
  <diagram id="C5RBs43oDa-KdzZeNtuy" name="Page-1">
    <mxGraphModel dx="839" dy="446" grid="1" gridSize="10" guides="1" tooltips="1" connect="1" arrows="1" fold="1" page="1" pageScale="1" pageWidth="827" pageHeight="1169" math="0" shadow="0">
      <root>
        <mxCell id="WIyWlLk6GJQsqaUBKTNV-0" />
        <mxCell id="WIyWlLk6GJQsqaUBKTNV-1" parent="WIyWlLk6GJQsqaUBKTNV-0" />
        <mxCell id="WIyWlLk6GJQsqaUBKTNV-2" value="" style="rounded=0;html=1;jettySize=auto;orthogonalLoop=1;fontSize=11;endArrow=block;endFill=0;endSize=8;strokeWidth=1;shadow=0;labelBackgroundColor=none;edgeStyle=orthogonalEdgeStyle;entryX=0;entryY=0.5;entryDx=0;entryDy=0;" parent="WIyWlLk6GJQsqaUBKTNV-1" source="WIyWlLk6GJQsqaUBKTNV-3" target="hehVdhgZzdK2gEAwAEWs-0" edge="1">
          <mxGeometry relative="1" as="geometry" />
        </mxCell>
        <mxCell id="WIyWlLk6GJQsqaUBKTNV-3" value="Inicio" style="rounded=1;whiteSpace=wrap;html=1;fontSize=12;glass=0;strokeWidth=1;shadow=0;" parent="WIyWlLk6GJQsqaUBKTNV-1" vertex="1">
          <mxGeometry x="20" y="50" width="120" height="40" as="geometry" />
        </mxCell>
        <mxCell id="WIyWlLk6GJQsqaUBKTNV-4" value="Yes" style="rounded=0;html=1;jettySize=auto;orthogonalLoop=1;fontSize=11;endArrow=block;endFill=0;endSize=8;strokeWidth=1;shadow=0;labelBackgroundColor=none;edgeStyle=orthogonalEdgeStyle;entryX=0.5;entryY=0;entryDx=0;entryDy=0;" parent="WIyWlLk6GJQsqaUBKTNV-1" source="WIyWlLk6GJQsqaUBKTNV-6" target="hehVdhgZzdK2gEAwAEWs-7" edge="1">
          <mxGeometry y="20" relative="1" as="geometry">
            <mxPoint as="offset" />
            <mxPoint x="80" y="240" as="targetPoint" />
          </mxGeometry>
        </mxCell>
        <mxCell id="WIyWlLk6GJQsqaUBKTNV-5" value="No" style="edgeStyle=orthogonalEdgeStyle;rounded=0;html=1;jettySize=auto;orthogonalLoop=1;fontSize=11;endArrow=block;endFill=0;endSize=8;strokeWidth=1;shadow=0;labelBackgroundColor=none;" parent="WIyWlLk6GJQsqaUBKTNV-1" source="WIyWlLk6GJQsqaUBKTNV-6" target="WIyWlLk6GJQsqaUBKTNV-7" edge="1">
          <mxGeometry y="10" relative="1" as="geometry">
            <mxPoint as="offset" />
          </mxGeometry>
        </mxCell>
        <mxCell id="WIyWlLk6GJQsqaUBKTNV-6" value="¿Credenciales Correctas?" style="rhombus;whiteSpace=wrap;html=1;shadow=0;fontFamily=Helvetica;fontSize=12;align=center;strokeWidth=1;spacing=6;spacingTop=-4;" parent="WIyWlLk6GJQsqaUBKTNV-1" vertex="1">
          <mxGeometry x="210" y="120" width="100" height="80" as="geometry" />
        </mxCell>
        <mxCell id="WIyWlLk6GJQsqaUBKTNV-7" value="Mostrar Mensaje de error" style="rounded=1;whiteSpace=wrap;html=1;fontSize=12;glass=0;strokeWidth=1;shadow=0;" parent="WIyWlLk6GJQsqaUBKTNV-1" vertex="1">
          <mxGeometry x="410" y="30" width="120" height="40" as="geometry" />
        </mxCell>
        <mxCell id="hehVdhgZzdK2gEAwAEWs-5" style="edgeStyle=orthogonalEdgeStyle;rounded=0;orthogonalLoop=1;jettySize=auto;html=1;entryX=0.5;entryY=0;entryDx=0;entryDy=0;" edge="1" parent="WIyWlLk6GJQsqaUBKTNV-1" source="hehVdhgZzdK2gEAwAEWs-0" target="WIyWlLk6GJQsqaUBKTNV-6">
          <mxGeometry relative="1" as="geometry" />
        </mxCell>
        <mxCell id="hehVdhgZzdK2gEAwAEWs-0" value="Login" style="rounded=1;whiteSpace=wrap;html=1;" vertex="1" parent="WIyWlLk6GJQsqaUBKTNV-1">
          <mxGeometry x="230" y="40" width="70" height="30" as="geometry" />
        </mxCell>
        <mxCell id="hehVdhgZzdK2gEAwAEWs-7" value="Menu Principal" style="swimlane;fontStyle=0;childLayout=stackLayout;horizontal=1;startSize=30;horizontalStack=0;resizeParent=1;resizeParentMax=0;resizeLast=0;collapsible=1;marginBottom=0;whiteSpace=wrap;html=1;" vertex="1" parent="WIyWlLk6GJQsqaUBKTNV-1">
          <mxGeometry x="20" y="270" width="150" height="150" as="geometry" />
        </mxCell>
        <mxCell id="hehVdhgZzdK2gEAwAEWs-8" value="Modulo de Empleados" style="text;strokeColor=none;fillColor=none;align=left;verticalAlign=middle;spacingLeft=4;spacingRight=4;overflow=hidden;points=[[0,0.5],[1,0.5]];portConstraint=eastwest;rotatable=0;whiteSpace=wrap;html=1;" vertex="1" parent="hehVdhgZzdK2gEAwAEWs-7">
          <mxGeometry y="30" width="150" height="30" as="geometry" />
        </mxCell>
        <mxCell id="hehVdhgZzdK2gEAwAEWs-9" value="Modulo de Vehículos" style="text;strokeColor=none;fillColor=none;align=left;verticalAlign=middle;spacingLeft=4;spacingRight=4;overflow=hidden;points=[[0,0.5],[1,0.5]];portConstraint=eastwest;rotatable=0;whiteSpace=wrap;html=1;" vertex="1" parent="hehVdhgZzdK2gEAwAEWs-7">
          <mxGeometry y="60" width="150" height="30" as="geometry" />
        </mxCell>
        <mxCell id="hehVdhgZzdK2gEAwAEWs-10" value="Modulo de clientes" style="text;strokeColor=none;fillColor=none;align=left;verticalAlign=middle;spacingLeft=4;spacingRight=4;overflow=hidden;points=[[0,0.5],[1,0.5]];portConstraint=eastwest;rotatable=0;whiteSpace=wrap;html=1;" vertex="1" parent="hehVdhgZzdK2gEAwAEWs-7">
          <mxGeometry y="90" width="150" height="30" as="geometry" />
        </mxCell>
        <mxCell id="hehVdhgZzdK2gEAwAEWs-11" value="Modulo de alquiler" style="text;strokeColor=none;fillColor=none;align=left;verticalAlign=middle;spacingLeft=4;spacingRight=4;overflow=hidden;points=[[0,0.5],[1,0.5]];portConstraint=eastwest;rotatable=0;whiteSpace=wrap;html=1;" vertex="1" parent="hehVdhgZzdK2gEAwAEWs-7">
          <mxGeometry y="120" width="150" height="30" as="geometry" />
        </mxCell>
        <mxCell id="hehVdhgZzdK2gEAwAEWs-14" value="Panel de control de empeado" style="swimlane;whiteSpace=wrap;html=1;" vertex="1" parent="WIyWlLk6GJQsqaUBKTNV-1">
          <mxGeometry x="330" y="170" width="360" height="280" as="geometry" />
        </mxCell>
        <mxCell id="hehVdhgZzdK2gEAwAEWs-23" style="edgeStyle=orthogonalEdgeStyle;rounded=0;orthogonalLoop=1;jettySize=auto;html=1;entryX=0.5;entryY=0;entryDx=0;entryDy=0;" edge="1" parent="hehVdhgZzdK2gEAwAEWs-14" source="hehVdhgZzdK2gEAwAEWs-12" target="hehVdhgZzdK2gEAwAEWs-18">
          <mxGeometry relative="1" as="geometry">
            <Array as="points">
              <mxPoint x="280" y="90" />
              <mxPoint x="100" y="90" />
            </Array>
          </mxGeometry>
        </mxCell>
        <mxCell id="hehVdhgZzdK2gEAwAEWs-12" value="Modificar empleado" style="rounded=1;whiteSpace=wrap;html=1;" vertex="1" parent="hehVdhgZzdK2gEAwAEWs-14">
          <mxGeometry x="150" y="50" width="140" height="30" as="geometry" />
        </mxCell>
        <mxCell id="hehVdhgZzdK2gEAwAEWs-22" style="edgeStyle=orthogonalEdgeStyle;rounded=0;orthogonalLoop=1;jettySize=auto;html=1;entryX=0.5;entryY=0;entryDx=0;entryDy=0;" edge="1" parent="hehVdhgZzdK2gEAwAEWs-14" source="hehVdhgZzdK2gEAwAEWs-19" target="hehVdhgZzdK2gEAwAEWs-18">
          <mxGeometry relative="1" as="geometry" />
        </mxCell>
        <mxCell id="hehVdhgZzdK2gEAwAEWs-19" value="Nuevo empleado" style="rounded=1;whiteSpace=wrap;html=1;arcSize=17;" vertex="1" parent="hehVdhgZzdK2gEAwAEWs-14">
          <mxGeometry x="10" y="50" width="130" height="30" as="geometry" />
        </mxCell>
        <mxCell id="hehVdhgZzdK2gEAwAEWs-28" style="edgeStyle=orthogonalEdgeStyle;rounded=0;orthogonalLoop=1;jettySize=auto;html=1;entryX=0.5;entryY=0;entryDx=0;entryDy=0;" edge="1" parent="hehVdhgZzdK2gEAwAEWs-14" source="hehVdhgZzdK2gEAwAEWs-18" target="hehVdhgZzdK2gEAwAEWs-24">
          <mxGeometry relative="1" as="geometry" />
        </mxCell>
        <mxCell id="hehVdhgZzdK2gEAwAEWs-18" value="Formulario de empleado" style="rounded=1;whiteSpace=wrap;html=1;" vertex="1" parent="hehVdhgZzdK2gEAwAEWs-14">
          <mxGeometry x="10" y="125" width="180" height="30" as="geometry" />
        </mxCell>
        <mxCell id="hehVdhgZzdK2gEAwAEWs-27" style="edgeStyle=orthogonalEdgeStyle;rounded=0;orthogonalLoop=1;jettySize=auto;html=1;entryX=0;entryY=0.5;entryDx=0;entryDy=0;" edge="1" parent="hehVdhgZzdK2gEAwAEWs-14" source="hehVdhgZzdK2gEAwAEWs-24" target="hehVdhgZzdK2gEAwAEWs-26">
          <mxGeometry relative="1" as="geometry" />
        </mxCell>
        <mxCell id="hehVdhgZzdK2gEAwAEWs-24" value="¿Todo salio correctanente?" style="rhombus;whiteSpace=wrap;html=1;" vertex="1" parent="hehVdhgZzdK2gEAwAEWs-14">
          <mxGeometry x="70" y="170" width="90" height="90" as="geometry" />
        </mxCell>
        <mxCell id="hehVdhgZzdK2gEAwAEWs-26" value="Guardar informacion del empleado" style="rounded=1;whiteSpace=wrap;html=1;" vertex="1" parent="hehVdhgZzdK2gEAwAEWs-14">
          <mxGeometry x="220" y="170" width="120" height="60" as="geometry" />
        </mxCell>
        <mxCell id="hehVdhgZzdK2gEAwAEWs-15" style="edgeStyle=orthogonalEdgeStyle;rounded=0;orthogonalLoop=1;jettySize=auto;html=1;entryX=0;entryY=0.5;entryDx=0;entryDy=0;" edge="1" parent="WIyWlLk6GJQsqaUBKTNV-1" source="hehVdhgZzdK2gEAwAEWs-8" target="hehVdhgZzdK2gEAwAEWs-14">
          <mxGeometry relative="1" as="geometry" />
        </mxCell>
      </root>
    </mxGraphModel>
  </diagram>
</mxfile>
